<svg width="16" height="17" viewBox="0 0 16 17" fill="none" xmlns="http://www.w3.org/2000/svg">
<g clip-path="url(#clip0_1_29)">
<path d="M11.742 10.9037C12.7103 9.55875 13.144 7.8913 12.9563 6.2349C12.7686 4.5785 11.9734 3.05531 10.7298 1.97006C9.48612 0.884811 7.88575 0.317542 6.24884 0.381741C4.61192 0.445941 3.05919 1.13687 1.90127 2.31631C0.743353 3.49575 0.0656519 5.07671 0.00375008 6.7429C-0.0581517 8.40909 0.500311 10.0376 1.56741 11.3027C2.63451 12.5678 4.13155 13.3761 5.75902 13.566C7.38649 13.7558 9.02438 13.3132 10.345 12.3266H10.344C10.374 12.3673 10.406 12.406 10.442 12.4437L14.292 16.3624C14.4795 16.5534 14.7339 16.6608 14.9991 16.6609C15.2644 16.661 15.5189 16.5538 15.7065 16.3629C15.8941 16.1721 15.9996 15.9132 15.9997 15.6432C15.9998 15.3732 15.8945 15.1142 15.707 14.9232L11.857 11.0044C11.8212 10.9676 11.7828 10.9336 11.742 10.9026V10.9037ZM12 6.99102C12 7.72619 11.8577 8.45415 11.5813 9.13336C11.3049 9.81257 10.8998 10.4297 10.3891 10.9496C9.87837 11.4694 9.27205 11.8818 8.60476 12.1631C7.93747 12.4444 7.22227 12.5892 6.5 12.5892C5.77773 12.5892 5.06253 12.4444 4.39524 12.1631C3.72795 11.8818 3.12164 11.4694 2.61091 10.9496C2.10019 10.4297 1.69506 9.81257 1.41866 9.13336C1.14226 8.45415 1 7.72619 1 6.99102C1 5.50628 1.57946 4.08235 2.61091 3.03248C3.64236 1.98261 5.04131 1.3928 6.5 1.3928C7.95869 1.3928 9.35764 1.98261 10.3891 3.03248C11.4205 4.08235 12 5.50628 12 6.99102Z" fill="white"/>
</g>
<defs>
<clipPath id="clip0_1_29">
<rect width="16" height="16.2857" fill="white" transform="translate(0 0.375)"/>
</clipPath>
</defs>
</svg>
